<svg id="logo-kirschnerED" version="1.1" xmlns="http://www.w3.org/2000/svg" xmlns:xlink="http://www.w3.org/1999/xlink" x="0px" y="0px" viewBox="0 0 354.3 70.9" style="enable-background:new 0 0 354.3 70.9;" xml:space="preserve">
						<g>
							<path d="M13.7,59.5l5.5-2.2V22.9l-5.5-1.6v-1.1L24,17.8v39.5l5.2,2.2v1.3H13.7V59.5z M41.2,57.7l4.7,1.8v1.3h-8.6L25.1,44.7
								l10.3-10.3l-4.1-1.6v-1.3H45v1.3L39,34.7l-9.2,8.5L41.2,57.7z"></path>
							<path d="M50.1,59.5l5.2-2.2V36l-5.2-1.6v-1.2l10.1-2.3v26.4l5.1,2.2v1.3H50.1V59.5z M61.1,20.9c0,2.2-1,3.1-3.3,3.1
								c-2.2,0-3.4-1-3.4-3c0-2.2,1-3.1,3.4-3.1S61.1,18.9,61.1,20.9z"></path>
							<path d="M69.6,59.5l5.2-2.2V35.9l-5.2-1.4v-1.3l10-2.2v3.5c5-2.3,7.6-3.2,9.5-3.2c1,0,1.9,0.3,2.7,0.8v6.5h-3.5l-1.9-3.5
								C85.7,35,84.9,35,84.5,35c-1.6,0-3.2,0.3-4.9,1v21.4l6.4,2.2v1.3H69.6V59.5z"></path>
							<path d="M95.4,53.2h2.2l2.8,5.5c1.1,0.2,1.6,0.2,2.6,0.2c4.3,0,6.5-1.5,6.5-4.6c0-2-0.7-2.9-3.3-4.6l-5.5-3.6
								c-3.8-2.4-4.9-4.1-4.9-6.9c0-5,3.3-8,9-8c2.3,0,4.1,0.3,8,1.1v5.9h-2.2l-2.4-5c-1-0.2-1.5-0.2-2.6-0.2c-3.8,0-5.9,1.5-5.9,4.1
								c0,1.6,1.1,3.1,4,4.8l4.8,3c3.9,2.5,5.3,4.3,5.3,7.3c0,5.3-3.8,8.8-9.4,8.8c-2,0-5.3-0.5-8.9-1.4V53.2z"></path>
							<path d="M142.1,38.6h-3.3l-2.6-5.5c-0.4-0.1-0.9-0.1-1.1-0.1c-6.5,0-11.2,5.2-11.2,12.7c0,7,4,12.4,11.2,12.4
								c2.5,0,3.9-0.2,6.9-0.7l0.4,1.7c-6.4,1.8-8.1,2-11,2c-7.5,0-12.7-5.8-12.7-14.2c0-9.4,6.5-15.7,16.3-15.7c2.2,0,4.3,0.4,7.2,1.3
								V38.6z"></path>
							<path d="M145.2,59.5l5.5-2.2V22.9l-5.5-1.6v-1.1l10.4-2.3V34c7.2-2.4,8-2.7,10.3-2.7c5,0,8.3,3.5,8.3,8.6v17.5l5.2,2.2v1.3h-14.9
								v-1.3l4.9-2.2V41c0-4.5-3.5-6.3-7.9-6.3c-2.2,0-4.4,0.3-5.9,0.8v21.9l4.6,2.2v1.3h-14.9V59.5z"></path>
							<path d="M182.4,59.5l5.2-2.2V36l-5.2-1.6v-1.3l10-2.2v3.1c6.7-2.2,8.4-2.8,10.5-2.8c4.2,0,8,3.1,8,8.4v17.6l5.2,2.2v1.3h-14.9v-1.3
								l4.9-2.2V42c0-4.9-2.4-7-7.9-7c-2.1,0-4,0.1-5.9,0.5v21.8l4.6,2.2v1.3h-14.6V59.5z"></path>
							<path d="M223.6,45.3v1.1c0,7.7,4.6,11.7,11.6,11.7c1.6,0,4.8-0.4,6.8-0.7l0.3,1.7c-3.7,1.1-8.3,2-11.1,2c-7.6,0-12.8-5.7-12.8-14
								c0-9.1,5.8-15.8,13.4-15.8c3.7,0,7.6,1.6,9.5,5.2c1.2,2.2,1.5,5.2,1.5,8.8H223.6z M237.6,42.9v-1.4c0-5.6-2.8-8.1-6.4-8.1
								c-4.7,0-7.3,3.4-7.7,10.3L237.6,42.9z"></path>
							<path d="M247.1,59.5l5.2-2.2V35.9l-5.2-1.4v-1.3l10-2.2v3.5c5-2.3,7.6-3.2,9.5-3.2c1,0,1.9,0.3,2.7,0.8v6.5h-3.5l-1.9-3.5
								c-0.7-0.1-1.4-0.1-1.9-0.1c-1.6,0-3.2,0.3-4.9,1v21.4l6.4,2.2v1.3h-16.4V59.5z"></path>
							<path d="M285.4,43.4h11.2l3-6.1h2.2l-0.7,8.5h-27.1v-1.5l4.5-1.9V13.8l-4.5-1.9v-1.5H301v8.5h-2l-2.7-6.1h-10.9v13.7h8.9l1.9-4.8
								h2.1v11.9h-2.1l-1.9-4.4h-8.9V43.4z"></path>
							<path d="M309.8,13.8l-4.5-1.9v-1.5h17.5c11.6,0,17.6,7.2,17.6,17.2c0,11-6.8,18.2-18.9,18.2h-16.2v-1.5l4.5-1.9V13.8z M320.5,43.2
								c8.5,0,12.8-6.3,12.8-15.2c0-8.7-4.1-14.8-13.1-14.8h-3.6v30.1H320.5z"></path>
						</g>
						</svg>
